<?xml version="1.0" encoding="UTF-8" standalone="no"?>
<!-- Created with Inkscape (http://www.inkscape.org/) -->

<svg
   width="47.861244mm"
   height="57.601128mm"
   viewBox="0 0 47.861244 57.601128"
   version="1.1"
   id="svg8"
   inkscape:version="1.1.2 (0a00cf5339, 2022-02-04)"
   sodipodi:docname="logo.svg"
   inkscape:export-filename="/home/rgutzen/Sciebo/own/Pictures/brain_outline/brain_top-view.png"
   inkscape:export-xdpi="300"
   inkscape:export-ydpi="300"
   xmlns:inkscape="http://www.inkscape.org/namespaces/inkscape"
   xmlns:sodipodi="http://sodipodi.sourceforge.net/DTD/sodipodi-0.dtd"
   xmlns="http://www.w3.org/2000/svg"
   xmlns:svg="http://www.w3.org/2000/svg"
   xmlns:rdf="http://www.w3.org/1999/02/22-rdf-syntax-ns#"
   xmlns:cc="http://creativecommons.org/ns#"
   xmlns:dc="http://purl.org/dc/elements/1.1/">
  <defs
     id="defs2">
    <inkscape:path-effect
       effect="perspective-envelope"
       up_left_point="162.73442,24.172156"
       up_right_point="176.72913,37.593481"
       down_left_point="162.99139,80.572468"
       down_right_point="176.58183,96.112725"
       id="path-effect19222"
       is_visible="true"
       lpeversion="1"
       deform_type="perspective"
       horizontal_mirror="false"
       vertical_mirror="false"
       overflow_perspective="false" />
    <inkscape:path-effect
       effect="perspective-envelope"
       up_left_point="97.36,92.730758"
       up_right_point="124.67394,92.730758"
       down_left_point="97.361923,172.14828"
       down_right_point="124.67394,172.14828"
       id="path-effect16715"
       is_visible="true"
       lpeversion="1"
       deform_type="perspective"
       horizontal_mirror="false"
       vertical_mirror="false"
       overflow_perspective="false" />
    <inkscape:path-effect
       effect="perspective-envelope"
       up_left_point="87.76149,8.245949"
       up_right_point="162.0315,8.245949"
       down_left_point="87.76149,23.606394"
       down_right_point="162.0315,23.606394"
       id="path-effect16518"
       is_visible="true"
       lpeversion="1"
       deform_type="perspective"
       horizontal_mirror="false"
       vertical_mirror="false"
       overflow_perspective="false" />
    <rect
       x="-78.503456"
       y="7.078901"
       width="130.5853"
       height="226.40599"
       id="rect4783" />
    <inkscape:path-effect
       effect="bspline"
       id="path-effect944"
       is_visible="true"
       weight="33.333333"
       steps="2"
       helper_size="0"
       apply_no_weight="true"
       apply_with_weight="true"
       only_selected="false" />
    <inkscape:path-effect
       effect="bspline"
       id="path-effect940"
       is_visible="true"
       weight="33.333333"
       steps="2"
       helper_size="0"
       apply_no_weight="true"
       apply_with_weight="true"
       only_selected="false" />
    <inkscape:path-effect
       effect="bspline"
       id="path-effect936"
       is_visible="true"
       weight="33.333333"
       steps="2"
       helper_size="0"
       apply_no_weight="true"
       apply_with_weight="true"
       only_selected="false" />
    <inkscape:path-effect
       effect="bspline"
       id="path-effect930"
       is_visible="true"
       weight="33.333333"
       steps="2"
       helper_size="0"
       apply_no_weight="true"
       apply_with_weight="true"
       only_selected="false" />
    <inkscape:path-effect
       effect="bspline"
       id="path-effect915"
       is_visible="true"
       weight="33.333333"
       steps="2"
       helper_size="0"
       apply_no_weight="true"
       apply_with_weight="true"
       only_selected="false" />
    <inkscape:path-effect
       effect="bspline"
       id="path-effect860"
       is_visible="true"
       weight="33.333333"
       steps="2"
       helper_size="0"
       apply_no_weight="true"
       apply_with_weight="true"
       only_selected="false" />
    <inkscape:path-effect
       effect="bspline"
       id="path-effect845"
       is_visible="true"
       weight="33.333333"
       steps="2"
       helper_size="0"
       apply_no_weight="true"
       apply_with_weight="true"
       only_selected="false" />
    <inkscape:path-effect
       effect="bspline"
       id="path-effect830"
       is_visible="true"
       weight="33.333333"
       steps="2"
       helper_size="0"
       apply_no_weight="true"
       apply_with_weight="true"
       only_selected="false" />
    <inkscape:path-effect
       effect="bspline"
       id="path-effect860-2"
       is_visible="true"
       weight="33.333333"
       steps="2"
       helper_size="0"
       apply_no_weight="true"
       apply_with_weight="true"
       only_selected="false" />
    <inkscape:path-effect
       effect="bspline"
       id="path-effect860-4"
       is_visible="true"
       weight="33.333333"
       steps="2"
       helper_size="0"
       apply_no_weight="true"
       apply_with_weight="true"
       only_selected="false" />
    <inkscape:path-effect
       effect="bspline"
       id="path-effect940-4"
       is_visible="true"
       weight="33.333333"
       steps="2"
       helper_size="0"
       apply_no_weight="true"
       apply_with_weight="true"
       only_selected="false"
       lpeversion="0" />
    <inkscape:path-effect
       effect="bspline"
       id="path-effect940-4-5"
       is_visible="true"
       weight="33.333333"
       steps="2"
       helper_size="0"
       apply_no_weight="true"
       apply_with_weight="true"
       only_selected="false"
       lpeversion="0" />
    <rect
       x="-78.503456"
       y="7.0789008"
       width="130.5853"
       height="226.40599"
       id="rect4783-8" />
    <rect
       x="-78.503456"
       y="7.0789008"
       width="130.5853"
       height="226.40599"
       id="rect4783-1" />
    <rect
       x="-78.503456"
       y="7.0789008"
       width="130.5853"
       height="226.40599"
       id="rect4783-8-3" />
    <rect
       x="-78.503456"
       y="7.0789008"
       width="130.5853"
       height="226.40599"
       id="rect4783-1-2" />
    <inkscape:path-effect
       effect="bspline"
       id="path-effect930-0"
       is_visible="true"
       weight="33.333333"
       steps="2"
       helper_size="0"
       apply_no_weight="true"
       apply_with_weight="true"
       only_selected="false"
       lpeversion="0" />
  </defs>
  <sodipodi:namedview
     id="base"
     pagecolor="#ffffff"
     bordercolor="#666666"
     borderopacity="1.0"
     inkscape:pageopacity="0.0"
     inkscape:pageshadow="2"
     inkscape:zoom="1.4"
     inkscape:cx="-283.57143"
     inkscape:cy="142.5"
     inkscape:document-units="mm"
     inkscape:current-layer="layer1"
     showgrid="false"
     showguides="true"
     inkscape:guide-bbox="true"
     inkscape:window-width="1920"
     inkscape:window-height="1060"
     inkscape:window-x="0"
     inkscape:window-y="0"
     inkscape:window-maximized="0"
     inkscape:pagecheckerboard="0">
    <sodipodi:guide
       position="-43.553479,51.079146"
       orientation="0,-1"
       id="guide18476" />
    <sodipodi:guide
       position="37.797617,-0.040241039"
       orientation="0,-1"
       id="guide18478" />
    <sodipodi:guide
       position="-35.599912,14.90529"
       orientation="1,0"
       id="guide43138" />
  </sodipodi:namedview>
  <metadata
     id="metadata5">
    <rdf:RDF>
      <cc:Work
         rdf:about="">
        <dc:format>image/svg+xml</dc:format>
        <dc:type
           rdf:resource="http://purl.org/dc/dcmitype/StillImage" />
      </cc:Work>
    </rdf:RDF>
  </metadata>
  <g
     inkscape:label="Layer 1"
     inkscape:groupmode="layer"
     id="layer1"
     transform="translate(-82.264058,-38.471356)">
    <text
       xml:space="preserve"
       transform="matrix(1.6734991,0,0,2.2707112,229.59817,-0.42221119)"
       id="text4781"
       style="font-weight:bold;font-size:40px;line-height:1.25;font-family:sans-serif;-inkscape-font-specification:'sans-serif, Bold';letter-spacing:0px;word-spacing:0px;writing-mode:lr-tb;white-space:pre;shape-inside:url(#rect4783);stroke:none;stroke-opacity:0.22929981;fill:#000000;fill-opacity:0.14248368"><tspan
         x="-78.503906"
         y="42.46875"
         id="tspan67362"><tspan
           style="font-family:aakar;-inkscape-font-specification:'aakar Bold'"
           id="tspan67360">D</tspan></tspan></text>
    <g
       aria-label="D"
       transform="matrix(2.1237109,0,0,2.2995479,134.31208,12.569084)"
       id="text4781-6"
       style="font-weight:bold;font-size:32.4369px;line-height:1.25;font-family:cmr10;-inkscape-font-specification:'cmr10 Bold';letter-spacing:0px;word-spacing:0px;white-space:pre;shape-inside:url(#rect4783-1);stroke-opacity:0.2293">
      <path
         d="m -75.302662,36.233962 v -1.14036 c 2.011397,0 3.017095,-0.343164 3.017095,-1.029491 V 16.245989 c 0,-0.686327 -1.005698,-1.029491 -3.017095,-1.029491 v -1.14036 h 10.795766 c 1.334576,0 2.554759,0.322046 3.660551,0.966138 1.105791,0.633533 2.049527,1.483524 2.831208,2.549971 0.78168,1.066448 1.382239,2.275441 1.801678,3.626978 0.42897,1.351537 0.643455,2.734751 0.643455,4.149642 0,1.372655 -0.214485,2.708355 -0.643455,4.007098 -0.428971,1.288184 -1.048596,2.454941 -1.858874,3.500271 -0.800746,1.034771 -1.754015,1.853085 -2.859806,2.454941 -1.096259,0.601857 -2.287845,0.902785 -3.574757,0.902785 z m 4.67439,-3.953777 c 0.135923,0.950544 0.14444,1.619188 1.050414,2.383324 0.905974,0.764136 1.937155,0.880535 2.723759,0.933219 0.786604,0.05268 2.0243,-0.0204 2.69874,-0.279671 0.67444,-0.259276 1.421007,-0.435861 1.787291,-0.977791 0.366285,-0.54193 0.466835,-1.337892 0.919342,-1.730803 0.452506,-0.392911 1.214738,-0.352543 1.92557,-0.595536 0.710833,-0.242992 1.525277,-0.711403 1.982848,-1.379255 0.45757,-0.667852 0.782737,-1.167878 0.940027,-2.009949 0.15729,-0.842071 0.158426,-2.069771 -0.457135,-2.50723 -0.615562,-0.437459 -1.867498,0.119365 -2.700104,0.163835 -0.486493,0.02599 -1.533682,-0.03495 -2.197517,-0.572223 -0.663835,-0.537274 -0.854343,-1.252958 -1.674392,-1.647445 -0.820049,-0.394487 -1.344443,-0.239868 -1.701123,-0.27432 -0.35668,-0.03445 -0.733314,-0.505514 -0.38818,-0.637974 0.224288,-0.08608 1.336871,-0.222577 2.393041,0.279951 1.05617,0.502528 1.01177,1.166404 1.630875,1.592572 0.619104,0.426168 1.162379,0.699372 2.863923,0.480087 1.701543,-0.219284 2.169504,-1.465548 2.190875,-1.706715 0.185586,-2.094254 -2.138107,-2.352054 -2.097486,-3.396524 0.04062,-1.04447 0.339838,-1.301612 0.02117,-2.287807 -0.318668,-0.986195 -1.248301,-1.565112 -2.193458,-1.953303 -0.945157,-0.388191 -2.071178,-0.200506 -2.816932,-0.300793 -0.745754,-0.100286 -1.386188,-0.91029 -2.068743,-1.168602 -0.682555,-0.258311 -2.38658,0.01467 -2.876747,0.337887 -0.490167,0.323218 -1.242642,0.764578 -1.710281,2.676084 -0.467639,1.911506 -0.458173,4.562583 -0.470946,6.825076 -0.01277,2.262493 0.08924,6.803357 0.225166,7.753902 z"
         id="path46934"
         sodipodi:nodetypes="ccssccscscscccsczzzzszzzzzszzzsszzszzzzzzzzzz"
         style="stroke-width:0.950164" />
    </g>
    <g
       aria-label="V"
       transform="matrix(-2.1237109,0,0,2.2278604,-95.834844,13.6272)"
       id="text4781-6-7"
       style="font-weight:bold;font-size:32.4369px;line-height:1.25;font-family:cmr10;-inkscape-font-specification:'cmr10 Bold';letter-spacing:0px;word-spacing:0px;white-space:pre;shape-inside:url(#rect4783-1-2);fill-opacity:1;stroke-opacity:0.2293;fill:#000000">
      <path
         d="m -66.835299,36.598244 -0.158908,-20.303087 c -0.19006,-0.454032 -0.570224,-0.78829 -1.108727,-0.904438 -0.538503,-0.116147 -1.224831,-0.174221 -2.058983,-0.174221 v -1.14036 h 9.664493 v 1.14036 c -0.897506,0 -2.018369,-0.0022 -2.599,0.176879 -0.654508,0.201858 -1.0902,0.620264 -1.0902,0.900074 0.06123,6.227328 0.02887,12.109343 0.02688,17.453684 l 7.964783,-7.464551 0.153774,-9.987427 c -0.03004,-0.670732 -0.263106,-0.76084 -0.563456,-0.899752 -0.30035,-0.138912 -1.131248,-0.178907 -1.733105,-0.178907 v -1.14036 h 6.751371 v 1.14036 c -0.813034,0 -2.4345,0.02829 -2.860545,0.178907 -0.426045,0.150617 -0.517758,0.220073 -0.608049,0.899752 l -0.178183,10.570433 -10.394183,9.732654 c -0.469785,0.426304 -0.508349,0.348443 -0.934462,0.348443 -0.28509,0 -0.210141,-0.116148 -0.273495,-0.348443 z"
         id="path43098"
         sodipodi:nodetypes="ccsccccscccczcccczcccccc"
         style="fill:#000000;fill-opacity:1" />
    </g>
    <g
       aria-label="V"
       transform="matrix(-1.8499391,0.01588523,0.17746888,2.0729937,51.313001,3.6050125)"
       id="text4781-1"
       style="font-weight:bold;font-size:40px;line-height:1.25;font-family:'CMU Classical Serif';-inkscape-font-specification:'CMU Classical Serif Bold';letter-spacing:0px;word-spacing:0px;white-space:pre;shape-inside:url(#rect4783-8);fill-opacity:0.80271894;stroke-opacity:0.2293;fill:#6f1291">
      <path
         d="m -70.103906,17.438125 c 0,-0.453333 0.266667,-0.68 0.8,-0.68 0.08,0 0.28,0.01333 0.6,0.04 0.32,0 0.76,0.01333 1.32,0.04 0.586667,0.02667 1.226667,0.04 1.92,0.04 0.773333,0 1.493333,-0.01333 2.16,-0.04 0.666667,-0.02667 1.186667,-0.04 1.56,-0.04 0.4,-0.02667 0.64,-0.04 0.72,-0.04 0.48,0 0.72,0.173333 0.72,0.52 0,0.293333 -0.106667,0.493333 -0.32,0.6 -0.05333,0.02667 -0.373333,0.06667 -0.96,0.12 -0.56,0.02667 -1.066667,0.146667 -1.52,0.36 -0.426667,0.213333 -0.64,0.56 -0.64,1.04 0,0.24 0.02667,0.6 0.08,1.08 l 1.8,18.12 c 0.05333,0.746667 0.106667,1.28 0.16,1.6 l 8.419471,-7.410763 c 0.429364,-0.377924 -0.634853,-8.602924 -0.741229,-9.604025 -0.03821,-0.359557 -0.218953,-4.021675 -0.434197,-4.378115 -0.324148,-0.536781 -0.54816,-0.459888 -0.921493,-0.646555 -0.346667,-0.186667 -1.431762,-0.114545 -1.805095,-0.194545 -0.346667,-0.08 -0.52,-0.24 -0.52,-0.48 0,-0.453333 0.266667,-0.68 0.8,-0.68 0.08,0 0.266667,0.01333 0.56,0.04 0.293333,0 0.693333,0.01333 1.2,0.04 0.533333,0.02667 1.106667,0.04 1.72,0.04 h 1.4 c 0.426667,-0.02667 0.76,-0.04 1,-0.04 0.266667,-0.02667 0.426667,-0.04 0.48,-0.04 0.426667,0 0.64,0.173333 0.64,0.52 0,0.346667 -0.146667,0.56 -0.44,0.64 -0.266667,0.08 -0.944936,0.103819 -1.398269,0.130486 -0.426667,0 -0.524026,-0.04043 -1.217359,0.492904 -0.346666,0.266667 0.05593,2.664922 0.244634,4.617443 0.05142,0.532038 1.00634,9.102407 0.673007,9.662407 l -10.499471,10.890763 -0.2,0.32 c -0.106667,0.213333 -0.2,0.346667 -0.28,0.4 -0.05333,0.08 -0.16,0.173333 -0.32,0.28 -0.16,0.106667 -0.333333,0.16 -0.52,0.16 -0.106667,0 -0.213333,-0.01333 -0.32,-0.04 -0.08,-0.02667 -0.146667,-0.08 -0.2,-0.16 -0.05333,-0.05333 -0.09333,-0.106667 -0.12,-0.16 -0.02667,-0.02667 -0.05333,-0.09333 -0.08,-0.2 -0.02667,-0.106667 -0.04,-0.186667 -0.04,-0.24 0,-0.02667 -0.01333,-0.09333 -0.04,-0.2 v -0.2 l -2.4,-24.36 c -0.02667,-0.24 -0.05333,-0.4 -0.08,-0.48 0,-0.106667 -0.08,-0.253333 -0.24,-0.44 -0.16,-0.213333 -0.386667,-0.346667 -0.68,-0.4 -0.186667,-0.02667 -0.4,-0.04 -0.64,-0.04 -0.213333,-0.02667 -0.4,-0.04 -0.56,-0.04 -0.133333,-0.02667 -0.28,-0.05333 -0.44,-0.08 -0.133333,-0.02667 -0.24,-0.08 -0.32,-0.16 -0.05333,-0.08 -0.08,-0.186667 -0.08,-0.32 z"
         id="path27200"
         sodipodi:nodetypes="ssccsscsssccscccsssccssccsccssccssccccsscccssccccccccccss"
         style="fill:#6f1291;fill-opacity:0.80271894" />
    </g>
    <path
       style="fill:none;stroke:#090000;stroke-width:1.23068;stroke-linecap:round;stroke-linejoin:miter;stroke-miterlimit:4;stroke-dasharray:none;stroke-opacity:1"
       d="m 139.26115,69.276605 c 0.65685,2.032246 1.31365,4.064367 1.3924,5.987149 0.0788,1.922782 -0.42027,3.735337 -1.52337,5.513923 -1.10311,1.778585 -2.80883,3.521081 -4.6364,4.388035 -1.82757,0.866954 -3.77492,0.857091 -5.07708,2.375878 -1.30217,1.518788 -1.9579,4.564911 -4.96856,6.179875 -3.01066,1.614964 -8.37202,1.797103 -11.57947,0.534336 -3.20746,-1.262768 -4.25599,-3.969195 -4.80708,-7.334753 -0.55109,-3.365558 -0.60412,-7.388298 -0.6293,-12.787864 -0.0252,-5.399567 -0.0225,-12.17444 0.26802,-18.315531 0.29054,-6.14109 0.86871,-11.645413 3.05984,-14.509965 2.19113,-2.864552 5.99325,-3.08642 8.15763,-2.362335 2.16438,0.724085 2.69002,2.393413 4.29437,2.884559 1.60434,0.491147 4.28632,-0.195935 6.9009,0.746224 2.61459,0.942159 5.16126,3.513163 5.70835,5.874311 0.5471,2.361149 -0.90477,4.510931 -0.20458,6.27483 0.70019,1.763898 3.5518,3.139425 4.5177,5.499655 0.96589,2.36023 0.0463,5.705713 -2.2518,7.348469 -2.29812,1.642756 -5.97253,1.582343 -8.16354,0.402351 -2.19101,-1.179992 -2.8953,-3.478532 -4.32097,-4.677368 -1.42566,-1.198837 -3.57267,-1.297003 -5.71993,-1.395181"
       id="path928"
       inkscape:connector-curvature="0"
       inkscape:path-effect="#path-effect930"
       inkscape:original-d="m 139.26115,69.276605 c 0.65701,2.032193 1.31381,4.064316 1.97043,6.096396 -0.49897,1.813622 -0.99799,3.626175 -1.49755,5.439504 -1.70669,1.744017 -3.41241,3.486513 -5.11965,5.230029 -1.94817,-0.0096 -3.89552,-0.01947 -5.84384,-0.0296 -0.6557,3.047511 -1.31143,6.093633 -1.96779,9.141222 -5.36526,0.182546 -10.72662,0.364686 -16.09246,0.546704 -1.04894,-2.707879 -2.09747,-5.414308 -3.14676,-8.122279 -0.0528,-4.023094 -0.1058,-8.045834 -0.15909,-12.068826 0.003,-6.776138 0.006,-13.551011 0.008,-20.326589 0.5787,-5.506573 1.15687,-11.010896 1.73505,-16.518064 3.80381,-0.221687 7.60593,-0.443555 11.4088,-0.665747 0.52604,1.670031 1.05168,3.339358 1.57724,5.009036 2.68304,-0.687019 5.36502,-1.374101 8.04702,-2.061521 2.54709,2.571422 5.09376,5.142428 7.64067,7.713676 -1.45242,2.151255 -2.90429,4.301037 -4.35757,6.452256 2.85331,1.376483 5.70492,2.75201 8.55622,4.127252 -0.91915,3.345193 -1.83871,6.690678 -2.75872,10.036551 -3.67655,-0.06019 -7.35096,-0.1206 -11.02838,-0.181323 -0.70443,-2.299573 -1.40872,-4.598115 -2.11349,-6.897581 -2.14674,-0.0979 -4.29375,-0.196068 -6.441,-0.294498"
       sodipodi:nodetypes="ccccccccccccccccccccc" />
    <path
       style="fill:none;stroke:#e59b00;stroke-width:1.05694;stroke-linecap:round;stroke-linejoin:miter;stroke-miterlimit:4;stroke-dasharray:none;stroke-opacity:0.00220006"
       d="m 12.410417,72.328306 c 0.578915,1.700776 1.157791,3.401434 1.227194,5.010584 0.0694,1.60915 -0.370403,3.126056 -1.34262,4.614535 -0.972217,1.488479 -2.4755533,2.946754 -4.0862926,3.672305 -1.6107393,0.725552 -3.3270361,0.717298 -4.4746998,1.988353 -1.1476638,1.271054 -1.7255874,3.820321 -4.37903761,5.171873 -2.65345019,1.351551 -7.37868929,1.503984 -10.20557999,0.447188 -2.82689,-1.056796 -3.751015,-3.321777 -4.236721,-6.138381 -0.485705,-2.816603 -0.532442,-6.183193 -0.554628,-10.702034 -0.02219,-4.518842 -0.01982,-10.18866 0.236255,-15.328076 0.256075,-5.139416 0.765648,-9.745933 2.696803,-12.143243 1.931154,-2.397311 5.2821549,-2.58299 7.1897332,-1.977008 1.9075784,0.605982 2.3708484,2.003027 3.7848414,2.414059 1.41399294,0.411032 3.7777592,-0.163982 6.0821227,0.624502 2.3043634,0.788484 4.5488712,2.940129 5.0310561,4.916146 0.4821849,1.976016 -0.7974193,3.775146 -0.1803102,5.25134 0.6171091,1.476194 3.1303788,2.627358 3.9816728,4.602605 0.851294,1.975247 0.04083,4.775052 -1.984655,6.149859 C 9.1700622,72.27772 5.9316179,72.227162 4.0005699,71.239643 2.0695219,70.252123 1.4487876,68.328492 0.19227864,67.325199 -1.0642303,66.321905 -2.9564995,66.23975 -4.848989,66.157585"
       id="path928-5"
       inkscape:connector-curvature="0"
       inkscape:path-effect="#path-effect930-0"
       inkscape:original-d="m 12.410417,72.328306 c 0.579056,1.700728 1.157927,3.401388 1.73664,5.102015 -0.439768,1.517799 -0.87958,3.034703 -1.319867,4.552261 -1.504193,1.459551 -3.0075316,2.917824 -4.512209,4.376958 -1.7170212,-0.0084 -3.4333196,-0.01632 -5.150473,-0.02477 -0.5779017,2.550429 -1.1558299,5.099695 -1.7343133,7.650193 -4.7286765,0.152773 -9.4539156,0.305205 -14.1831017,0.457537 -0.924486,-2.266199 -1.848607,-4.531182 -2.773398,-6.797453 -0.04654,-3.36689 -0.09325,-6.73348 -0.140216,-10.100278 0.0027,-5.670882 0.0054,-11.3407 0.0071,-17.011112 0.510038,-4.608392 1.019608,-9.214909 1.529188,-13.823797 3.35249,-0.185528 6.7034909,-0.371206 10.0551536,-0.557157 0.4636257,1.397633 0.9268988,2.794677 1.390102,4.192015 2.3646995,-0.57496 4.7284646,-1.149979 7.0922476,-1.725273 2.2448798,2.152003 4.4893894,4.303646 6.7341108,6.455498 -1.2800917,1.800368 -2.5596985,3.599496 -3.8405481,5.39983 2.5147671,1.151962 5.0280361,2.303128 7.5410311,3.454053 -0.810091,2.799554 -1.620548,5.59936 -2.431399,8.399483 C 9.1700589,72.277932 5.9316145,72.227378 2.6905175,72.176563 2.0696674,70.252076 1.4489409,68.328443 0.82779118,66.40405 -1.0642396,66.32212 -2.9565086,66.23996 -4.848989,66.157585"
       sodipodi:nodetypes="ccccccccccccccccccccc" />
    <path
       style="fill:none;stroke:#090000;stroke-width:1.00086;stroke-linecap:round;stroke-linejoin:miter;stroke-miterlimit:4;stroke-dasharray:none;stroke-opacity:1"
       d="m 128.27558,73.416601 c -2.12769,-0.110514 -4.25538,-0.221027 -5.98854,0.363211 -1.73316,0.584239 -3.07107,1.863074 -3.64675,3.634577 -0.57567,1.771503 -0.38828,4.034331 -0.20082,6.297931"
       id="path938"
       inkscape:connector-curvature="0"
       inkscape:path-effect="#path-effect940"
       inkscape:original-d="m 128.27558,73.416601 c -2.1277,-0.110264 -4.25539,-0.220778 -6.3836,-0.331569 -1.33813,1.278991 -2.67604,2.557825 -4.0148,3.837528 0.18768,2.263312 0.37507,4.52614 0.56229,6.78976"
       sodipodi:nodetypes="cccc" />
    <path
       style="fill:none;stroke:#090000;stroke-width:1.00086;stroke-linecap:round;stroke-linejoin:miter;stroke-miterlimit:4;stroke-dasharray:none;stroke-opacity:1"
       d="m 106.88155,46.591012 c -0.15964,-1.927162 -0.31921,-3.853405 -0.7716,-5.301364 -0.4524,-1.44796 -1.19757,-2.416292 -2.26681,-2.759792 -1.06923,-0.3435 -2.46334,-0.06186 -3.856999,0.219697"
       id="path938-5"
       inkscape:connector-curvature="0"
       inkscape:path-effect="#path-effect940-4"
       inkscape:original-d="m 106.88155,46.591012 c -0.15941,-1.927181 -0.31897,-3.853425 -0.4789,-5.781089 -0.74506,-0.968263 -1.49023,-1.936597 -2.23554,-2.905028 -1.39314,0.281766 -4.180969,0.844658 -4.180969,0.844658"
       sodipodi:nodetypes="ccsc" />
    <path
       style="fill:none;stroke:#090000;stroke-width:1.00086;stroke-linecap:round;stroke-linejoin:miter;stroke-miterlimit:4;stroke-dasharray:none;stroke-opacity:1"
       d="m 107.23854,89.834119 c -0.13812,1.285242 -0.27617,2.569798 -0.85677,3.408379 -0.5806,0.838581 -1.60268,1.229924 -2.66909,1.477188 -1.06642,0.247264 -2.17632,0.350094 -3.28617,0.452919"
       id="path938-5-7"
       inkscape:connector-curvature="0"
       inkscape:path-effect="#path-effect940-4-5"
       inkscape:original-d="m 107.23854,89.834119 c -0.13783,1.285273 -0.27588,2.569829 -0.41431,3.855242 -1.02294,0.392037 -2.04502,0.783382 -3.06818,1.17477 -1.10976,0.103106 -3.32954,0.308474 -3.32954,0.308474"
       sodipodi:nodetypes="ccsc" />
    <g
       id="g2952-4-7-2"
       style="fill:#7e7e7e;fill-opacity:0;stroke:#000000;stroke-width:0.8;stroke-linecap:round;stroke-linejoin:round;stroke-miterlimit:4;stroke-dasharray:none;stroke-opacity:0.2"
       transform="translate(47.749905,18.491932)"
       inkscape:path-effect="#path-effect16715">
      <path
         d="m 98.075979,92.934007 26.597961,4.235953 0,74.57412 -26.596629,-22.32401 z"
         style="fill:#7e7e7e;fill-opacity:0;fill-rule:evenodd;stroke:#000000;stroke-width:0.8;stroke-linejoin:round;stroke-miterlimit:4;stroke-dasharray:none;stroke-opacity:0.2"
         id="path3150-1-5-2"
         inkscape:original-d="m 98.077847,92.933993 26.596093,4.235672 V 171.74405 L 98.077847,149.41893 Z" />
      <path
         d="m 97.36,92.730758 0.0014,56.850732 0.715934,-0.16142 -0.0013,-56.486063 z"
         style="fill:#7e7e7e;fill-opacity:0;fill-rule:evenodd;stroke:#000000;stroke-width:0.8;stroke-linejoin:round;stroke-miterlimit:4;stroke-dasharray:none;stroke-opacity:0.2"
         id="path3152-1-4-3"
         inkscape:original-d="m 97.361923,92.730758 v 56.849592 l 0.715924,-0.16142 V 92.933993 Z" />
      <path
         d="m 97.361377,149.58149 26.592563,22.56679 0.72,-0.4042 -26.596629,-22.32401 z"
         style="fill:#7e7e7e;fill-opacity:0;fill-rule:evenodd;stroke:#000000;stroke-width:0.8;stroke-linejoin:round;stroke-miterlimit:4;stroke-dasharray:none;stroke-opacity:0.2"
         id="path3154-3-4-9"
         inkscape:original-d="m 97.361923,149.58035 26.592017,22.56793 0.72,-0.40423 -26.596093,-22.32512 z" />
      <path
         d="m 97.36,92.730758 26.59389,4.206487 0.72005,0.232715 -26.597961,-4.235953 z"
         style="fill:#7e7e7e;fill-opacity:0;fill-rule:evenodd;stroke:#000000;stroke-width:0.8;stroke-linejoin:round;stroke-miterlimit:4;stroke-dasharray:none;stroke-opacity:0.2"
         id="path3156-5-9-6"
         inkscape:original-d="m 97.361923,92.730758 26.592017,4.206207 0.72,0.2327 -26.596093,-4.235672 z" />
      <path
         d="m 123.95389,96.937245 5e-5,75.211035 0.72,-0.4042 0,-74.57412 z"
         style="fill:#7e7e7e;fill-opacity:0;fill-rule:evenodd;stroke:#000000;stroke-width:0.8;stroke-linejoin:round;stroke-miterlimit:4;stroke-dasharray:none;stroke-opacity:0.2"
         id="path3158-9-6-5"
         inkscape:original-d="m 123.95394,96.936965 v 75.211315 l 0.72,-0.40423 V 97.169665 Z" />
      <path
         d="m 97.36,92.730758 26.59389,4.206487 5e-5,75.211035 -26.592563,-22.56679 z"
         style="fill:#7e7e7e;fill-opacity:0;fill-rule:evenodd;stroke:#000000;stroke-width:0.8;stroke-linejoin:round;stroke-miterlimit:4;stroke-dasharray:none;stroke-opacity:0.2"
         id="path3160-3-7-7"
         inkscape:original-d="m 97.361923,92.730758 26.592017,4.206207 V 172.14828 L 97.361923,149.58035 Z" />
    </g>
    <g
       id="g2966-4-2-4"
       style="fill:#7e7e7e;fill-opacity:0.03;stroke:#000000;stroke-width:0.8;stroke-linecap:round;stroke-linejoin:round;stroke-miterlimit:4;stroke-dasharray:none;stroke-opacity:0.35"
       transform="translate(47.749905,18.491932)">
      <path
         d="m 109.84726,93.02433 29.22862,4.104966 v 74.569044 l -29.22862,-21.67557 z"
         style="fill:#7e7e7e;fill-opacity:0.03;fill-rule:evenodd;stroke:#000000;stroke-width:0.8;stroke-linejoin:round;stroke-miterlimit:4;stroke-dasharray:none;stroke-opacity:0.35"
         id="path3136-1-1-3" />
      <path
         d="m 109.11596,92.792747 v 57.418943 l 0.7313,-0.18892 V 93.02433 Z"
         style="fill:#7e7e7e;fill-opacity:0.03;fill-rule:evenodd;stroke:#000000;stroke-width:0.8;stroke-linejoin:round;stroke-miterlimit:4;stroke-dasharray:none;stroke-opacity:0.35"
         id="path3138-5-0-9" />
      <path
         d="m 109.11596,150.21169 29.28375,21.94405 0.67617,-0.4574 -29.22862,-21.67557 z"
         style="fill:#7e7e7e;fill-opacity:0.03;fill-rule:evenodd;stroke:#000000;stroke-width:0.8;stroke-linejoin:round;stroke-miterlimit:4;stroke-dasharray:none;stroke-opacity:0.35"
         id="path3140-0-1-4" />
      <path
         d="m 109.11596,92.792747 29.28375,4.072597 0.67617,0.263952 -29.22862,-4.104966 z"
         style="fill:#7e7e7e;fill-opacity:0.03;fill-rule:evenodd;stroke:#000000;stroke-width:0.8;stroke-linejoin:round;stroke-miterlimit:4;stroke-dasharray:none;stroke-opacity:0.35"
         id="path3142-8-3-4" />
      <path
         d="m 138.39971,96.865344 v 75.290396 l 0.67617,-0.4574 V 97.129296 Z"
         style="fill:#7e7e7e;fill-opacity:0.03;fill-rule:evenodd;stroke:#000000;stroke-width:0.8;stroke-linejoin:round;stroke-miterlimit:4;stroke-dasharray:none;stroke-opacity:0.35"
         id="path3144-3-7-0" />
      <path
         d="m 109.11596,92.792747 29.28375,4.072597 v 75.290396 l -29.28375,-21.94405 z"
         style="fill:#7e7e7e;fill-opacity:0.03;fill-rule:evenodd;stroke:#000000;stroke-width:0.8;stroke-linejoin:round;stroke-miterlimit:4;stroke-dasharray:none;stroke-opacity:0.35"
         id="path3146-5-7-6" />
    </g>
    <g
       id="g2980-6-6-0"
       style="fill:#7e7e7e;fill-opacity:0.06;stroke:#000000;stroke-width:0.8;stroke-linecap:round;stroke-linejoin:round;stroke-miterlimit:4;stroke-dasharray:none;stroke-opacity:0.5"
       transform="translate(47.749905,18.491932)">
      <path
         d="m 122.96702,93.056372 30.30734,3.748086 V 171.4227 l -30.30734,-20.10673 z"
         style="fill:#7e7e7e;fill-opacity:0.06;fill-rule:evenodd;stroke:#000000;stroke-width:0.8;stroke-linejoin:round;stroke-miterlimit:4;stroke-dasharray:none;stroke-opacity:0.5"
         id="path3122-5-3-2" />
      <path
         d="m 122.24397,92.792745 v 58.749375 l 0.72305,-0.22615 V 93.056372 Z"
         style="fill:#7e7e7e;fill-opacity:0.06;fill-rule:evenodd;stroke:#000000;stroke-width:0.8;stroke-linejoin:round;stroke-miterlimit:4;stroke-dasharray:none;stroke-opacity:0.5"
         id="path3124-9-9-2" />
      <path
         d="m 122.24397,151.54212 30.42922,20.38793 0.60117,-0.50735 -30.30734,-20.10673 z"
         style="fill:#7e7e7e;fill-opacity:0.06;fill-rule:evenodd;stroke:#000000;stroke-width:0.8;stroke-linejoin:round;stroke-miterlimit:4;stroke-dasharray:none;stroke-opacity:0.5"
         id="path3126-9-1-8" />
      <path
         d="m 122.24397,92.792745 30.42922,3.713716 0.60117,0.297997 -30.30734,-3.748086 z"
         style="fill:#7e7e7e;fill-opacity:0.06;fill-rule:evenodd;stroke:#000000;stroke-width:0.8;stroke-linejoin:round;stroke-miterlimit:4;stroke-dasharray:none;stroke-opacity:0.5"
         id="path3128-0-0-4" />
      <path
         d="m 152.67319,96.506461 v 75.423589 l 0.60117,-0.50735 V 96.804458 Z"
         style="fill:#7e7e7e;fill-opacity:0.06;fill-rule:evenodd;stroke:#000000;stroke-width:0.8;stroke-linejoin:round;stroke-miterlimit:4;stroke-dasharray:none;stroke-opacity:0.5"
         id="path3130-7-41-3" />
      <path
         d="m 122.24397,92.792745 30.42922,3.713716 v 75.423589 l -30.42922,-20.38793 z"
         style="fill:#7e7e7e;fill-opacity:0.06;fill-rule:evenodd;stroke:#000000;stroke-width:0.8;stroke-linejoin:round;stroke-miterlimit:4;stroke-dasharray:none;stroke-opacity:0.5"
         id="path3132-6-1-1" />
    </g>
    <path
       d="m -6.8057088,82.909951 c -0.037228,0.717724 -0.4885564,1.373883 -0.8719652,1.558723 -0.383409,0.184839 -0.6250511,-1.21944 -0.6067052,-1.795547 0.018346,-0.576107 0.343295,-1.296069 0.8591168,-2.10371 0.5158218,-0.807641 1.4999524,-1.364332 2.0349114,-1.743677 0.534959,-0.379345 1.0281176,-0.891872 1.8294249,-1.363578 1.0098866,-0.594491 2.0293408,-0.687749 2.9736181,-0.737358 0.94427734,-0.04961 1.18865631,0.08925 2.5288354,0.531927 1.3401792,0.442678 1.6558409,1.378729 1.2097767,1.592509 -0.6248705,0.299474 -1.1509383,-0.178096 -1.9358636,-0.372287 -0.78492529,-0.19419 -1.4000211,-0.798992 -3.0379254,-0.329607 -1.6379043,0.469385 -1.7732109,1.067399 -2.2164408,1.399236 -0.4432299,0.331836 -1.3499598,0.823921 -1.9463334,1.502891 -0.5963736,0.678969 -0.7832217,1.142754 -0.8204497,1.860478 z"
       style="stroke-width:0.251398"
       id="path57673"
       sodipodi:nodetypes="zzzzzszzszzzzz" />
  </g>
</svg>
