<?xml version="1.0" encoding="UTF-8" standalone="no"?>
<!-- Created with Inkscape (http://www.inkscape.org/) -->

<svg
   width="97.369568mm"
   height="50.964809mm"
   viewBox="0 0 97.369567 50.96481"
   version="1.1"
   id="svg8"
   inkscape:version="1.1.2 (0a00cf5339, 2022-02-04)"
   sodipodi:docname="favicon_black.svg"
   inkscape:export-filename="/home/rgutzen/Sciebo/own/Pictures/brain_outline/brain_top-view.png"
   inkscape:export-xdpi="300"
   inkscape:export-ydpi="300"
   xmlns:inkscape="http://www.inkscape.org/namespaces/inkscape"
   xmlns:sodipodi="http://sodipodi.sourceforge.net/DTD/sodipodi-0.dtd"
   xmlns="http://www.w3.org/2000/svg"
   xmlns:svg="http://www.w3.org/2000/svg"
   xmlns:rdf="http://www.w3.org/1999/02/22-rdf-syntax-ns#"
   xmlns:cc="http://creativecommons.org/ns#"
   xmlns:dc="http://purl.org/dc/elements/1.1/">
  <defs
     id="defs2">
    <rect
       x="-260.3909"
       y="-138.77263"
       width="405.82135"
       height="263.59473"
       id="rect2563" />
    <inkscape:path-effect
       effect="perspective-envelope"
       up_left_point="162.73442,24.172156"
       up_right_point="176.72913,37.593481"
       down_left_point="162.99139,80.572468"
       down_right_point="176.58183,96.112725"
       id="path-effect19222"
       is_visible="true"
       lpeversion="1"
       deform_type="perspective"
       horizontal_mirror="false"
       vertical_mirror="false"
       overflow_perspective="false" />
    <inkscape:path-effect
       effect="perspective-envelope"
       up_left_point="97.36,92.730758"
       up_right_point="124.67394,92.730758"
       down_left_point="97.361923,172.14828"
       down_right_point="124.67394,172.14828"
       id="path-effect16715"
       is_visible="true"
       lpeversion="1"
       deform_type="perspective"
       horizontal_mirror="false"
       vertical_mirror="false"
       overflow_perspective="false" />
    <inkscape:path-effect
       effect="perspective-envelope"
       up_left_point="87.76149,8.245949"
       up_right_point="162.0315,8.245949"
       down_left_point="87.76149,23.606394"
       down_right_point="162.0315,23.606394"
       id="path-effect16518"
       is_visible="true"
       lpeversion="1"
       deform_type="perspective"
       horizontal_mirror="false"
       vertical_mirror="false"
       overflow_perspective="false" />
    <rect
       x="-78.503456"
       y="7.0789008"
       width="130.5853"
       height="226.40599"
       id="rect4783" />
    <inkscape:path-effect
       effect="bspline"
       id="path-effect944"
       is_visible="true"
       weight="33.333333"
       steps="2"
       helper_size="0"
       apply_no_weight="true"
       apply_with_weight="true"
       only_selected="false"
       lpeversion="0" />
    <inkscape:path-effect
       effect="bspline"
       id="path-effect940"
       is_visible="true"
       weight="33.333333"
       steps="2"
       helper_size="0"
       apply_no_weight="true"
       apply_with_weight="true"
       only_selected="false"
       lpeversion="0" />
    <inkscape:path-effect
       effect="bspline"
       id="path-effect936"
       is_visible="true"
       weight="33.333333"
       steps="2"
       helper_size="0"
       apply_no_weight="true"
       apply_with_weight="true"
       only_selected="false"
       lpeversion="0" />
    <inkscape:path-effect
       effect="bspline"
       id="path-effect930"
       is_visible="true"
       weight="33.333333"
       steps="2"
       helper_size="0"
       apply_no_weight="true"
       apply_with_weight="true"
       only_selected="false"
       lpeversion="0" />
    <inkscape:path-effect
       effect="bspline"
       id="path-effect915"
       is_visible="true"
       weight="33.333333"
       steps="2"
       helper_size="0"
       apply_no_weight="true"
       apply_with_weight="true"
       only_selected="false"
       lpeversion="0" />
    <inkscape:path-effect
       effect="bspline"
       id="path-effect860"
       is_visible="true"
       weight="33.333333"
       steps="2"
       helper_size="0"
       apply_no_weight="true"
       apply_with_weight="true"
       only_selected="false"
       lpeversion="0" />
    <inkscape:path-effect
       effect="bspline"
       id="path-effect845"
       is_visible="true"
       weight="33.333333"
       steps="2"
       helper_size="0"
       apply_no_weight="true"
       apply_with_weight="true"
       only_selected="false"
       lpeversion="0" />
    <inkscape:path-effect
       effect="bspline"
       id="path-effect830"
       is_visible="true"
       weight="33.333333"
       steps="2"
       helper_size="0"
       apply_no_weight="true"
       apply_with_weight="true"
       only_selected="false"
       lpeversion="0" />
    <inkscape:path-effect
       effect="bspline"
       id="path-effect860-2"
       is_visible="true"
       weight="33.333333"
       steps="2"
       helper_size="0"
       apply_no_weight="true"
       apply_with_weight="true"
       only_selected="false"
       lpeversion="0" />
    <inkscape:path-effect
       effect="bspline"
       id="path-effect860-4"
       is_visible="true"
       weight="33.333333"
       steps="2"
       helper_size="0"
       apply_no_weight="true"
       apply_with_weight="true"
       only_selected="false"
       lpeversion="0" />
    <inkscape:path-effect
       effect="bspline"
       id="path-effect940-4"
       is_visible="true"
       weight="33.333333"
       steps="2"
       helper_size="0"
       apply_no_weight="true"
       apply_with_weight="true"
       only_selected="false"
       lpeversion="0" />
    <inkscape:path-effect
       effect="bspline"
       id="path-effect940-4-5"
       is_visible="true"
       weight="33.333333"
       steps="2"
       helper_size="0"
       apply_no_weight="true"
       apply_with_weight="true"
       only_selected="false"
       lpeversion="0" />
    <rect
       x="-78.503456"
       y="7.0789008"
       width="130.5853"
       height="226.40599"
       id="rect4783-8" />
    <rect
       x="-78.503456"
       y="7.0789008"
       width="130.5853"
       height="226.40599"
       id="rect4783-1" />
    <rect
       x="-78.503456"
       y="7.0789008"
       width="130.5853"
       height="226.40599"
       id="rect4783-8-3" />
    <rect
       x="-78.503456"
       y="7.0789008"
       width="130.5853"
       height="226.40599"
       id="rect4783-1-2" />
    <inkscape:path-effect
       effect="bspline"
       id="path-effect930-0"
       is_visible="true"
       weight="33.333333"
       steps="2"
       helper_size="0"
       apply_no_weight="true"
       apply_with_weight="true"
       only_selected="false"
       lpeversion="0" />
    <rect
       x="-260.3909"
       y="-138.77263"
       width="405.82135"
       height="263.59473"
       id="rect2563-5" />
    <inkscape:path-effect
       effect="bspline"
       id="path-effect930-0-2"
       is_visible="true"
       weight="33.333333"
       steps="2"
       helper_size="0"
       apply_no_weight="true"
       apply_with_weight="true"
       only_selected="false"
       lpeversion="0" />
    <rect
       x="-260.3909"
       y="-138.77263"
       width="405.82135"
       height="263.59473"
       id="rect2563-1" />
    <rect
       x="-260.3909"
       y="-138.77263"
       width="405.82135"
       height="263.59473"
       id="rect2563-5-3" />
  </defs>
  <sodipodi:namedview
     id="base"
     pagecolor="#ffffff"
     bordercolor="#666666"
     borderopacity="1.0"
     inkscape:pageopacity="0.0"
     inkscape:pageshadow="2"
     inkscape:zoom="0.7"
     inkscape:cx="20"
     inkscape:cy="-220.71429"
     inkscape:document-units="mm"
     inkscape:current-layer="layer1"
     showgrid="false"
     showguides="true"
     inkscape:guide-bbox="true"
     inkscape:window-width="1920"
     inkscape:window-height="1060"
     inkscape:window-x="0"
     inkscape:window-y="0"
     inkscape:window-maximized="0"
     inkscape:pagecheckerboard="0">
    <sodipodi:guide
       position="93.269851,129.84582"
       orientation="0,-1"
       id="guide18476" />
    <sodipodi:guide
       position="174.62096,78.726429"
       orientation="0,-1"
       id="guide18478" />
    <sodipodi:guide
       position="101.22342,93.671961"
       orientation="1,0"
       id="guide43138" />
    <sodipodi:guide
       position="28.839188,101.62989"
       orientation="1,0"
       id="guide19390" />
    <sodipodi:guide
       position="48.706079,-0.040711333"
       orientation="0,-1"
       id="guide21806" />
  </sodipodi:namedview>
  <metadata
     id="metadata5">
    <rdf:RDF>
      <cc:Work
         rdf:about="">
        <dc:format>image/svg+xml</dc:format>
        <dc:type
           rdf:resource="http://purl.org/dc/dcmitype/StillImage" />
      </cc:Work>
    </rdf:RDF>
  </metadata>
  <g
     inkscape:label="Layer 1"
     inkscape:groupmode="layer"
     id="layer1"
     transform="translate(54.559274,-123.87434)">
    <g
       aria-label="D"
       transform="matrix(2.1237109,0,0,2.2995479,105.36181,91.512054)"
       id="text4781-6-4"
       style="font-weight:bold;font-size:32.4369px;line-height:1.25;font-family:cmr10;-inkscape-font-specification:'cmr10 Bold';letter-spacing:0px;word-spacing:0px;white-space:pre;shape-inside:url(#rect4783-1);stroke-opacity:0.2293"
       inkscape:export-filename="/home/rgutzen/01_PROJECTS/DynVision/docs/assets/thumbnail.png"
       inkscape:export-xdpi="300"
       inkscape:export-ydpi="300">
      <path
         d="m -75.302662,36.233962 v -1.14036 c 2.011397,0 3.017095,-0.343164 3.017095,-1.029491 V 16.245989 c 0,-0.686327 -1.005698,-1.029491 -3.017095,-1.029491 v -1.14036 h 10.795766 c 1.334576,0 2.554759,0.322046 3.660551,0.966138 1.105791,0.633533 2.049527,1.483524 2.831208,2.549971 0.78168,1.066448 1.382239,2.275441 1.801678,3.626978 0.42897,1.351537 0.643455,2.734751 0.643455,4.149642 0,1.372655 -0.214485,2.708355 -0.643455,4.007098 -0.428971,1.288184 -1.048596,2.454941 -1.858874,3.500271 -0.800746,1.034771 -1.754015,1.853085 -2.859806,2.454941 -1.096259,0.601857 -2.287845,0.902785 -3.574757,0.902785 z m 4.67439,-3.953777 c 0.135923,0.950544 0.14444,1.619188 1.050414,2.383324 0.905974,0.764136 1.937155,0.880535 2.723759,0.933219 0.786604,0.05268 2.0243,-0.0204 2.69874,-0.279671 0.67444,-0.259276 1.421007,-0.435861 1.787291,-0.977791 0.366285,-0.54193 0.466835,-1.337892 0.919342,-1.730803 0.452506,-0.392911 1.214738,-0.352543 1.92557,-0.595536 0.710833,-0.242992 1.525277,-0.711403 1.982848,-1.379255 0.45757,-0.667852 0.782737,-1.167878 0.940027,-2.009949 0.15729,-0.842071 0.158426,-2.069771 -0.457135,-2.50723 -0.615562,-0.437459 -1.867498,0.119365 -2.700104,0.163835 -0.486493,0.02599 -1.533682,-0.03495 -2.197517,-0.572223 -0.663835,-0.537274 -0.854343,-1.252958 -1.674392,-1.647445 -0.820049,-0.394487 -1.344443,-0.239868 -1.701123,-0.27432 -0.35668,-0.03445 -0.733314,-0.505514 -0.38818,-0.637974 0.224288,-0.08608 1.336871,-0.222577 2.393041,0.279951 1.05617,0.502528 1.01177,1.166404 1.630875,1.592572 0.619104,0.426168 1.162379,0.699372 2.863923,0.480087 1.701543,-0.219284 2.169504,-1.465548 2.190875,-1.706715 0.185586,-2.094254 -2.138107,-2.352054 -2.097486,-3.396524 0.04062,-1.04447 0.339838,-1.301612 0.02117,-2.287807 -0.318668,-0.986195 -1.248301,-1.565112 -2.193458,-1.953303 -0.945157,-0.388191 -2.071178,-0.200506 -2.816932,-0.300793 -0.745754,-0.100286 -1.386188,-0.91029 -2.068743,-1.168602 -0.682555,-0.258311 -2.38658,0.01467 -2.876747,0.337887 -0.490167,0.323218 -1.242642,0.764578 -1.710281,2.676084 -0.467639,1.911506 -0.458173,4.562583 -0.470946,6.825076 -0.01277,2.262493 0.08924,6.803357 0.225166,7.753902 z"
         id="path46934-9"
         sodipodi:nodetypes="ccssccscscscccsczzzzszzzzzszzzsszzszzzzzzzzzz"
         style="stroke-width:0.950164" />
    </g>
    <g
       aria-label="V"
       transform="matrix(-2.1237109,0,0,2.2278604,-125.70829,92.514671)"
       id="text4781-6-7-4"
       style="font-weight:bold;font-size:32.4369px;line-height:1.25;font-family:cmr10;-inkscape-font-specification:'cmr10 Bold';letter-spacing:0px;word-spacing:0px;white-space:pre;shape-inside:url(#rect4783-1-2);fill:#000000;fill-opacity:1;stroke-opacity:0.2293"
       inkscape:export-filename="/home/rgutzen/01_PROJECTS/DynVision/docs/assets/thumbnail.png"
       inkscape:export-xdpi="300"
       inkscape:export-ydpi="300">
      <path
         d="m -66.835299,36.598244 -0.158908,-20.303087 c -0.19006,-0.454032 -0.570224,-0.78829 -1.108727,-0.904438 -0.538503,-0.116147 -1.224831,-0.174221 -2.058983,-0.174221 v -1.14036 h 9.664493 v 1.14036 c -0.897506,0 -2.018369,-0.0022 -2.599,0.176879 -0.654508,0.201858 -1.0902,0.620264 -1.0902,0.900074 0.06123,6.227328 0.02887,12.109343 0.02688,17.453684 l 7.964783,-7.464551 0.153774,-9.987427 c -0.03004,-0.670732 -0.263106,-0.76084 -0.563456,-0.899752 -0.30035,-0.138912 -1.131248,-0.178907 -1.733105,-0.178907 v -1.14036 h 6.751371 v 1.14036 c -0.813034,0 -2.4345,0.02829 -2.860545,0.178907 -0.426045,0.150617 -0.517758,0.220073 -0.608049,0.899752 l -0.178183,10.570433 -10.394183,9.732654 c -0.469785,0.426304 -0.508349,0.348443 -0.934462,0.348443 -0.28509,0 -0.210141,-0.116148 -0.273495,-0.348443 z"
         id="path43098-1"
         sodipodi:nodetypes="ccsccccscccczcccczcccccc"
         style="fill:#000000;fill-opacity:1" />
    </g>
    <path
       style="fill:none;stroke:#e59b00;stroke-width:1.05694;stroke-linecap:round;stroke-linejoin:miter;stroke-miterlimit:4;stroke-dasharray:none;stroke-opacity:0.00220008"
       d="m -16.539755,151.27148 c 0.578914,1.70077 1.157791,3.40143 1.227196,5.01058 0.0694,1.60915 -0.370399,3.12605 -1.342617,4.61453 -0.972218,1.48848 -2.475554,2.94676 -4.086292,3.67231 -1.610739,0.72554 -3.32704,0.71728 -4.474704,1.98833 -1.147664,1.27105 -1.725591,3.82032 -4.379039,5.17187 -2.653448,1.35154 -7.378687,1.50398 -10.205581,0.44718 -2.826893,-1.05679 -3.751018,-3.32177 -4.236723,-6.13837 -0.485704,-2.81661 -0.532439,-6.1832 -0.554641,-10.70204 -0.0222,-4.51884 -0.01987,-10.18866 0.236188,-15.32808 0.256056,-5.13942 0.765626,-9.74596 2.69678,-12.14328 1.931154,-2.39733 5.282164,-2.58301 7.189742,-1.97702 1.907577,0.60599 2.370847,2.00304 3.784838,2.41407 1.413992,0.41103 3.777754,-0.16398 6.082124,0.62451 2.30437,0.78849 4.548877,2.94014 5.031059,4.91617 0.482182,1.97602 -0.797424,3.77515 -0.18031,5.25135 0.617113,1.47619 3.130381,2.62736 3.981674,4.60261 0.851294,1.97524 0.04083,4.77505 -1.984655,6.14986 -2.025487,1.3748 -5.263939,1.32424 -7.194984,0.33672 -1.931046,-0.98752 -2.551784,-2.91115 -3.808292,-3.91444 -1.256508,-1.00329 -3.14878,-1.08545 -5.041269,-1.16761"
       id="path928-5-9"
       inkscape:connector-curvature="0"
       sodipodi:nodetypes="ccccccccccccccccccccc"
       inkscape:export-filename="/home/rgutzen/01_PROJECTS/DynVision/docs/assets/thumbnail.png"
       inkscape:export-xdpi="300"
       inkscape:export-ydpi="300"
       inkscape:original-d="m -16.539755,151.27148 c 0.579061,1.70072 1.157931,3.40138 1.736641,5.10201 -0.43976,1.5178 -0.87958,3.0347 -1.31986,4.55226 -1.504201,1.45955 -3.007532,2.91783 -4.512213,4.37696 -1.717021,-0.008 -3.433322,-0.0163 -5.150473,-0.0248 -0.57791,2.55043 -1.155831,5.0997 -1.734321,7.65019 -4.72867,0.15278 -9.45391,0.30521 -14.1831,0.45754 -0.92449,-2.2662 -1.84861,-4.53118 -2.7734,-6.79745 -0.0465,-3.36689 -0.0932,-6.73348 -0.14021,-10.10028 0.003,-5.67088 0.005,-11.3407 0.007,-17.01111 0.51003,-4.6084 1.0196,-9.21494 1.52918,-13.82386 3.35249,-0.18552 6.7035,-0.37121 10.05516,-0.55716 0.46362,1.39765 0.9269,2.7947 1.3901,4.19204 2.3647,-0.57496 4.728461,-1.14998 7.092252,-1.72528 2.244881,2.15202 4.489393,4.30367 6.734114,6.45553 -1.280091,1.80038 -2.559702,3.59951 -3.840553,5.39984 2.514772,1.15197 5.028043,2.30313 7.541035,3.45406 -0.810091,2.79955 -1.620551,5.59936 -2.431402,8.39948 -3.240401,-0.0504 -6.478853,-0.10093 -9.719945,-0.15175 -0.62086,-1.92448 -1.241581,-3.84812 -1.862731,-5.77251 -1.89203,-0.0819 -3.7843,-0.16409 -5.67678,-0.24646"
       inkscape:path-effect="#path-effect930-0-2" />
    <path
       d="m -35.755881,161.85312 c -0.0372,0.71773 -0.48856,1.37389 -0.87197,1.55873 -0.38341,0.18483 -0.62505,-1.21945 -0.6067,-1.79555 0.0183,-0.57611 0.34329,-1.29607 0.85912,-2.10371 0.51582,-0.80764 1.49995,-1.36433 2.03491,-1.74368 0.53496,-0.37934 1.02811,-0.89187 1.82942,-1.36358 1.00989,-0.59449 2.02934,-0.68775 2.97362,-0.73736 0.94428,-0.0496 1.18866,0.0893 2.52883,0.53193 1.340181,0.44268 1.655851,1.37873 1.209781,1.59251 -0.62487,0.29948 -1.150941,-0.1781 -1.935861,-0.37229 -0.78493,-0.19419 -1.40002,-0.79899 -3.03793,-0.3296 -1.6379,0.46938 -1.77321,1.0674 -2.21644,1.39923 -0.44323,0.33184 -1.34996,0.82392 -1.94633,1.50289 -0.59638,0.67897 -0.78322,1.14276 -0.82045,1.86048 z"
       style="stroke-width:0.251398"
       id="path57673-5"
       sodipodi:nodetypes="zzzzzszzszzzzz"
       inkscape:export-filename="/home/rgutzen/01_PROJECTS/DynVision/docs/assets/thumbnail.png"
       inkscape:export-xdpi="300"
       inkscape:export-ydpi="300" />
    <path
       style="fill:#000000;fill-opacity:0.05;stroke:#000000;stroke-width:0.264583px;stroke-linecap:butt;stroke-linejoin:miter;stroke-opacity:1"
       d="m -28.942761,125.5239 -2.85502,-0.41914 -14.19386,-0.23975 0.13659,48.81562 5.32361,0.14069 12.32379,-0.15675 9.809025,-8.16855 3.743563,-6.25191 1.24327,-9.17751 -1.429601,-9.69745 -4.037222,-9.04658 -3.666972,-2.9499 z"
       id="path13795-1"
       sodipodi:nodetypes="ccccccccccccc"
       inkscape:export-filename="/home/rgutzen/01_PROJECTS/DynVision/docs/assets/thumbnail.png"
       inkscape:export-xdpi="300"
       inkscape:export-ydpi="300" />
    <path
       style="fill:none;stroke:#000000;stroke-width:2.5;stroke-linecap:round;stroke-linejoin:round;stroke-miterlimit:4;stroke-dasharray:none;stroke-opacity:0.35"
       d="m 23.375753,125.17295 -21.9797099,0.0352 0.05088,26.77194 21.9288299,21.5178 z"
       id="path16908-2"
       sodipodi:nodetypes="ccccc"
       inkscape:export-filename="/home/rgutzen/01_PROJECTS/DynVision/docs/assets/thumbnail.png"
       inkscape:export-xdpi="300"
       inkscape:export-ydpi="300" />
    <path
       style="fill:none;stroke:#000000;stroke-width:2.5;stroke-linecap:round;stroke-linejoin:round;stroke-miterlimit:4;stroke-dasharray:none;stroke-opacity:0.2"
       d="m 32.688111,125.16267 -21.979715,0.0352 0.05088,26.77195 21.928835,21.51779 z"
       id="path16908-0-2"
       sodipodi:nodetypes="ccccc"
       inkscape:export-filename="/home/rgutzen/01_PROJECTS/DynVision/docs/assets/thumbnail.png"
       inkscape:export-xdpi="300"
       inkscape:export-ydpi="300" />
    <path
       style="fill:none;stroke:#000000;stroke-width:2.5;stroke-linecap:round;stroke-linejoin:round;stroke-miterlimit:4;stroke-dasharray:none;stroke-opacity:0.1"
       d="m 41.560293,125.16755 -21.979686,0.0352 0.05088,26.77194 21.928806,21.5178 z"
       id="path16908-0-7-1"
       sodipodi:nodetypes="ccccc"
       inkscape:export-filename="/home/rgutzen/01_PROJECTS/DynVision/docs/assets/thumbnail.png"
       inkscape:export-xdpi="300"
       inkscape:export-ydpi="300" />
  </g>
</svg>
