<?xml version="1.0" encoding="UTF-8" standalone="no"?>
<!-- Created with Inkscape (http://www.inkscape.org/) -->

<svg
   width="192.37863mm"
   height="44.312859mm"
   viewBox="0 0 192.37863 44.312859"
   version="1.1"
   id="svg8"
   inkscape:version="1.1.2 (0a00cf5339, 2022-02-04)"
   sodipodi:docname="logo_black_template_v2.svg"
   inkscape:export-filename="/home/rgutzen/Sciebo/own/Pictures/brain_outline/brain_top-view.png"
   inkscape:export-xdpi="300"
   inkscape:export-ydpi="300"
   xmlns:inkscape="http://www.inkscape.org/namespaces/inkscape"
   xmlns:sodipodi="http://sodipodi.sourceforge.net/DTD/sodipodi-0.dtd"
   xmlns="http://www.w3.org/2000/svg"
   xmlns:svg="http://www.w3.org/2000/svg"
   xmlns:rdf="http://www.w3.org/1999/02/22-rdf-syntax-ns#"
   xmlns:cc="http://creativecommons.org/ns#"
   xmlns:dc="http://purl.org/dc/elements/1.1/">
  <defs
     id="defs2">
    <rect
       x="-260.3909"
       y="-138.77263"
       width="405.82135"
       height="263.59473"
       id="rect2563" />
    <inkscape:path-effect
       effect="perspective-envelope"
       up_left_point="162.73442,24.172156"
       up_right_point="176.72913,37.593481"
       down_left_point="162.99139,80.572468"
       down_right_point="176.58183,96.112725"
       id="path-effect19222"
       is_visible="true"
       lpeversion="1"
       deform_type="perspective"
       horizontal_mirror="false"
       vertical_mirror="false"
       overflow_perspective="false" />
    <inkscape:path-effect
       effect="perspective-envelope"
       up_left_point="97.36,92.730758"
       up_right_point="124.67394,92.730758"
       down_left_point="97.361923,172.14828"
       down_right_point="124.67394,172.14828"
       id="path-effect16715"
       is_visible="true"
       lpeversion="1"
       deform_type="perspective"
       horizontal_mirror="false"
       vertical_mirror="false"
       overflow_perspective="false" />
    <inkscape:path-effect
       effect="perspective-envelope"
       up_left_point="87.76149,8.245949"
       up_right_point="162.0315,8.245949"
       down_left_point="87.76149,23.606394"
       down_right_point="162.0315,23.606394"
       id="path-effect16518"
       is_visible="true"
       lpeversion="1"
       deform_type="perspective"
       horizontal_mirror="false"
       vertical_mirror="false"
       overflow_perspective="false" />
    <rect
       x="-78.503456"
       y="7.0789008"
       width="130.5853"
       height="226.40599"
       id="rect4783" />
    <inkscape:path-effect
       effect="bspline"
       id="path-effect944"
       is_visible="true"
       weight="33.333333"
       steps="2"
       helper_size="0"
       apply_no_weight="true"
       apply_with_weight="true"
       only_selected="false"
       lpeversion="0" />
    <inkscape:path-effect
       effect="bspline"
       id="path-effect940"
       is_visible="true"
       weight="33.333333"
       steps="2"
       helper_size="0"
       apply_no_weight="true"
       apply_with_weight="true"
       only_selected="false"
       lpeversion="0" />
    <inkscape:path-effect
       effect="bspline"
       id="path-effect936"
       is_visible="true"
       weight="33.333333"
       steps="2"
       helper_size="0"
       apply_no_weight="true"
       apply_with_weight="true"
       only_selected="false"
       lpeversion="0" />
    <inkscape:path-effect
       effect="bspline"
       id="path-effect930"
       is_visible="true"
       weight="33.333333"
       steps="2"
       helper_size="0"
       apply_no_weight="true"
       apply_with_weight="true"
       only_selected="false"
       lpeversion="0" />
    <inkscape:path-effect
       effect="bspline"
       id="path-effect915"
       is_visible="true"
       weight="33.333333"
       steps="2"
       helper_size="0"
       apply_no_weight="true"
       apply_with_weight="true"
       only_selected="false"
       lpeversion="0" />
    <inkscape:path-effect
       effect="bspline"
       id="path-effect860"
       is_visible="true"
       weight="33.333333"
       steps="2"
       helper_size="0"
       apply_no_weight="true"
       apply_with_weight="true"
       only_selected="false"
       lpeversion="0" />
    <inkscape:path-effect
       effect="bspline"
       id="path-effect845"
       is_visible="true"
       weight="33.333333"
       steps="2"
       helper_size="0"
       apply_no_weight="true"
       apply_with_weight="true"
       only_selected="false"
       lpeversion="0" />
    <inkscape:path-effect
       effect="bspline"
       id="path-effect830"
       is_visible="true"
       weight="33.333333"
       steps="2"
       helper_size="0"
       apply_no_weight="true"
       apply_with_weight="true"
       only_selected="false"
       lpeversion="0" />
    <inkscape:path-effect
       effect="bspline"
       id="path-effect860-2"
       is_visible="true"
       weight="33.333333"
       steps="2"
       helper_size="0"
       apply_no_weight="true"
       apply_with_weight="true"
       only_selected="false"
       lpeversion="0" />
    <inkscape:path-effect
       effect="bspline"
       id="path-effect860-4"
       is_visible="true"
       weight="33.333333"
       steps="2"
       helper_size="0"
       apply_no_weight="true"
       apply_with_weight="true"
       only_selected="false"
       lpeversion="0" />
    <inkscape:path-effect
       effect="bspline"
       id="path-effect940-4"
       is_visible="true"
       weight="33.333333"
       steps="2"
       helper_size="0"
       apply_no_weight="true"
       apply_with_weight="true"
       only_selected="false"
       lpeversion="0" />
    <inkscape:path-effect
       effect="bspline"
       id="path-effect940-4-5"
       is_visible="true"
       weight="33.333333"
       steps="2"
       helper_size="0"
       apply_no_weight="true"
       apply_with_weight="true"
       only_selected="false"
       lpeversion="0" />
    <rect
       x="-78.503456"
       y="7.0789008"
       width="130.5853"
       height="226.40599"
       id="rect4783-8" />
    <rect
       x="-78.503456"
       y="7.0789008"
       width="130.5853"
       height="226.40599"
       id="rect4783-1" />
    <rect
       x="-78.503456"
       y="7.0789008"
       width="130.5853"
       height="226.40599"
       id="rect4783-8-3" />
    <rect
       x="-78.503456"
       y="7.0789008"
       width="130.5853"
       height="226.40599"
       id="rect4783-1-2" />
    <inkscape:path-effect
       effect="bspline"
       id="path-effect930-0"
       is_visible="true"
       weight="33.333333"
       steps="2"
       helper_size="0"
       apply_no_weight="true"
       apply_with_weight="true"
       only_selected="false"
       lpeversion="0" />
    <rect
       x="-260.3909"
       y="-138.77263"
       width="658.62695"
       height="235.95364"
       id="rect2563-5" />
    <inkscape:path-effect
       effect="bspline"
       id="path-effect930-0-2"
       is_visible="true"
       weight="33.333333"
       steps="2"
       helper_size="0"
       apply_no_weight="true"
       apply_with_weight="true"
       only_selected="false"
       lpeversion="0" />
    <rect
       x="-260.3909"
       y="-138.77263"
       width="405.82135"
       height="263.59473"
       id="rect2563-1" />
    <rect
       x="-260.3909"
       y="-138.77263"
       width="405.82135"
       height="263.59473"
       id="rect2563-5-3" />
    <rect
       x="-260.3909"
       y="-138.77263"
       width="405.82135"
       height="263.59473"
       id="rect2563-7" />
    <rect
       x="-260.3909"
       y="-138.77263"
       width="405.82135"
       height="263.59473"
       id="rect2563-7-4" />
    <rect
       x="-260.3909"
       y="-138.77263"
       width="658.62695"
       height="235.95364"
       id="rect2563-5-34" />
  </defs>
  <sodipodi:namedview
     id="base"
     pagecolor="#ffffff"
     bordercolor="#666666"
     borderopacity="1.0"
     inkscape:pageopacity="0.0"
     inkscape:pageshadow="2"
     inkscape:zoom="1.28"
     inkscape:cx="141.40625"
     inkscape:cy="45.703125"
     inkscape:document-units="mm"
     inkscape:current-layer="layer1"
     showgrid="false"
     showguides="true"
     inkscape:guide-bbox="true"
     inkscape:window-width="1920"
     inkscape:window-height="1060"
     inkscape:window-x="0"
     inkscape:window-y="0"
     inkscape:window-maximized="0"
     inkscape:pagecheckerboard="0">
    <sodipodi:guide
       position="175.11039,59.766595"
       orientation="0,-1"
       id="guide18476" />
    <sodipodi:guide
       position="116.98206,8.3917854"
       orientation="0,-1"
       id="guide18478" />
    <sodipodi:guide
       position="183.06396,23.592738"
       orientation="1,0"
       id="guide43138" />
    <sodipodi:guide
       position="104.8923,2.0941268"
       orientation="1,0"
       id="guide19390" />
    <sodipodi:guide
       position="130.54662,-70.119929"
       orientation="0,-1"
       id="guide21806" />
    <sodipodi:guide
       position="70.9515,44.29294"
       orientation="0,-1"
       id="guide9227" />
    <sodipodi:guide
       position="100.51634,43.391634"
       orientation="1,0"
       id="guide10941" />
    <sodipodi:guide
       position="104.8923,18.350404"
       orientation="0,-1"
       id="guide11436" />
    <sodipodi:guide
       position="85.441413,18.350404"
       orientation="1,0"
       id="guide11438" />
    <sodipodi:guide
       position="88.800403,47.555563"
       orientation="1,0"
       id="guide11794" />
    <sodipodi:guide
       position="118.17525,38.005861"
       orientation="0,-1"
       id="guide14160" />
  </sodipodi:namedview>
  <metadata
     id="metadata5">
    <rdf:RDF>
      <cc:Work
         rdf:about="">
        <dc:format>image/svg+xml</dc:format>
        <dc:type
           rdf:resource="http://purl.org/dc/dcmitype/StillImage" />
      </cc:Work>
    </rdf:RDF>
  </metadata>
  <g
     inkscape:label="Layer 1"
     inkscape:groupmode="layer"
     id="layer1"
     transform="translate(136.39982,-60.447074)">
    <text
       xml:space="preserve"
       transform="matrix(0.26458333,0,0,0.26458333,-36.878517,95.072969)"
       id="text2561"
       style="font-weight:bold;font-size:160px;line-height:1.25;font-family:sans-serif;-inkscape-font-specification:'sans-serif, Bold';letter-spacing:3.75px;word-spacing:0px;writing-mode:lr-tb;white-space:pre;shape-inside:url(#rect2563);fill:#1a1815;fill-opacity:1;stroke:none;stroke-width:0.999999;stroke-miterlimit:4;stroke-dasharray:none;stroke-opacity:0.101961"><tspan
         x="-260.39062"
         y="4.6121424"
         id="tspan16937"><tspan
           style="font-weight:500;font-family:'Space Grotesk';-inkscape-font-specification:'Space Grotesk, Medium'"
           id="tspan16935">yn</tspan></tspan></text>
    <g
       aria-label="D"
       transform="matrix(0.25648351,0,0,0.25648351,-72.025049,85.997736)"
       id="text2561-5"
       style="font-size:200px;font-family:'SpaceMono Nerd Font';-inkscape-font-specification:'SpaceMono Nerd Font';letter-spacing:3.75px;word-spacing:0px;white-space:pre;fill:#1a1815;fill-opacity:1;stroke-width:0.999999">
      <path
         id="path7328"
         style="-inkscape-font-specification:'Space Grotesk, Medium';fill:#1a1815;fill-opacity:1;stroke-width:0.969386"
         d="M 68.240234,58.507812 V 77.119141 H 86.658203 V 175.60938 H 68.240234 v 18.61132 h 54.285156 c 36.06118,0 56.03125,-18.22386 56.03125,-55.06054 v -25.39844 c 0,-37.030565 -19.97007,-55.253908 -56.03125,-55.253908 z m 49.417966,13.84375 c 1.63337,0.04944 3.43063,0.350758 5.29883,0.962891 3.21199,1.052432 7.43155,4.397249 10.82617,4.916016 3.39466,0.518774 8.52003,-0.453376 12.82227,1.554687 4.30235,2.008052 8.53372,5.00401 9.98437,10.105469 1.44979,5.101463 0.0899,6.431074 -0.0957,11.833985 -0.18497,5.40291 10.39164,4.72138 9.54688,15.55469 -0.0973,1.24753 -2.22735,7.69574 -9.97266,8.83008 -7.74531,1.13432 -10.21891,-0.27986 -13.03711,-2.48438 -2.81809,-2.20451 -2.61432,-5.63876 -7.42187,-8.23828 -4.80764,-2.59951 -9.87365,-1.89255 -10.89454,-1.44727 -1.57107,0.6852 -5.66097,5.57241 1.76758,7.17774 1.62354,0.17821 4.01129,-0.62072 7.74414,1.41992 3.73282,2.04062 4.59936,5.74223 7.6211,8.52148 3.02169,2.77922 7.78752,3.09538 10.00195,2.96094 3.78996,-0.23003 9.4891,-3.11058 12.29101,-0.84765 2.80211,2.26292 2.79803,6.74758 2.08204,11.10351 -0.71592,4.35592 -2.19648,6.94372 -4.2793,10.39844 -2.08286,3.45471 -5.7897,5.87779 -9.02539,7.13476 -3.23569,1.25697 -6.70586,1.04761 -8.76563,3.08008 -2.0598,2.03248 -2.5182,6.14979 -4.18554,8.95313 -1.6673,2.80333 -5.06473,3.71738 -8.13477,5.05859 -3.06996,1.34113 -8.70451,1.71778 -12.28515,1.44531 -3.58058,-0.2725 -8.27445,-0.87338 -12.39844,-4.82617 -4.12385,-3.95278 -4.16254,-7.41108 -4.78125,-12.32812 h 0.002 c -0.61871,-4.91705 -1.08359,-28.40775 -1.02539,-40.11133 0.0582,-11.70359 0.0139,-25.416712 2.14258,-35.304689 2.12867,-9.887978 5.55391,-12.171793 7.78515,-13.84375 1.39448,-1.044959 3.66444,-1.662479 6.38672,-1.580079 z m 13.85742,68.285158 c -1.65045,-0.0734 -3.37985,0.29232 -5.13476,1.55078 -1.71749,1.06111 -1.89247,2.63086 -4.13086,4.24805 -2.23846,1.61718 -5.52636,3.00444 -5.99219,7.47461 -0.0394,1.29595 0.29667,6.8921 2.27344,6.21875 2.87788,-1.0657 3.402,-6.22772 5.16602,-8.43946 1.76413,-2.21175 4.67743,-4.45795 7.82226,-5.47461 3.14491,-1.01665 4.64221,2.43214 9.22266,1.03321 4.58048,-1.39893 -1.68604,-4.52567 -4.5586,-5.52149 -1.44485,-0.50271 -3.01751,-1.01644 -4.66797,-1.08984 z"
         transform="matrix(1.0315803,0,0,1.0315803,-321.38519,-159.8967)" />
    </g>
    <g
       aria-label="V"
       transform="matrix(0.26458333,0,0,0.26458333,9.8531133,85.725752)"
       id="text2561-5-1"
       style="font-size:200px;font-family:'SpaceMono Nerd Font';-inkscape-font-specification:'SpaceMono Nerd Font';letter-spacing:3.75px;word-spacing:0px;white-space:pre;fill:#cf8a2a;fill-opacity:1;stroke-width:0.999999">
      <path
         d="m -172.86271,40.223224 h 16.53906 V -71.703992 h -16.53906 V 20.3914 L -217.14343,-4.0776929 V -95.428487 l -12.84719,-0.112976 0.1518,98.1258112 z"
         style="-inkscape-font-specification:'Space Grotesk, Medium';fill:#cf8a2a;fill-opacity:1"
         id="path10480"
         sodipodi:nodetypes="cccccccccc" />
    </g>
    <text
       xml:space="preserve"
       transform="matrix(0.26458333,0,0,0.26458333,39.297134,95.123563)"
       id="text2561-6"
       style="font-weight:bold;font-size:160px;line-height:1.25;font-family:sans-serif;-inkscape-font-specification:'sans-serif, Bold';letter-spacing:-6.94px;word-spacing:0px;writing-mode:lr-tb;white-space:pre;shape-inside:url(#rect2563-5);fill:#cf8a2a;fill-opacity:1;stroke:none;stroke-width:0.999999;stroke-miterlimit:4;stroke-dasharray:none;stroke-opacity:1"><tspan
         x="-260.39062"
         y="4.6121424"
         id="tspan16941"><tspan
           style="font-weight:500;font-family:'Space Grotesk';-inkscape-font-specification:'Space Grotesk, Medium'"
           id="tspan16939">ision</tspan></tspan></text>
    <g
       aria-label="i"
       transform="matrix(0.26458333,0,0,0.26458333,34.3811,84.383029)"
       id="text2561-6-2"
       style="font-weight:bold;font-size:160px;-inkscape-font-specification:'sans-serif, Bold';letter-spacing:-6.94px;word-spacing:0px;white-space:pre;fill:#1a1815;fill-opacity:1;stroke-width:0.999999">
      <path
         d="m -47.330429,17.886818 c 6.4,0 11.36,-4.48 11.36,-11.2000001 0,-6.72000205 -4.96,-11.200002 -11.36,-11.200002 -6.56,0 -11.36,4.47999995 -11.36,11.200002 0,6.7200001 4.8,11.2000001 11.36,11.2000001 z"
         style="-inkscape-font-specification:'Space Grotesk, Medium';fill:#1a1815;fill-opacity:1"
         id="path16210"
         sodipodi:nodetypes="sssss" />
    </g>
    <path
       style="fill:#cf8a2a;fill-opacity:1;stroke:none;stroke-width:0.138107;stroke-linecap:round;stroke-linejoin:round;stroke-opacity:0.101961"
       d="m 49.856553,121.73294 c -4.829008,-0.59543 -7.994668,-1.9704 -10.851779,-4.71334 -1.521651,-1.46084 -2.306013,-2.50565 -3.039114,-4.04824 -1.793677,-3.77426 -2.265413,-9.73968 -2.697551,-34.112381 -0.167866,-9.467615 -0.08835,-25.626802 0.155285,-31.557402 0.509592,-12.404533 1.828625,-20.208057 4.285566,-25.353823 1.180521,-2.472457 2.421067,-4.043673 4.534083,-5.742652 1.916959,-1.541338 3.335667,-2.040709 6.108815,-2.150241 3.756505,-0.148372 6.087472,0.510278 10.756134,3.039314 3.125016,1.692834 4.924455,2.478707 6.255693,2.73206 0.396228,0.07541 2.553784,0.196827 4.794566,0.269821 5.301968,0.172713 6.348377,0.384234 9.253155,1.870428 5.558943,2.844163 8.431913,6.372167 9.315587,11.439529 0.283544,1.625967 0.26651,2.943561 -0.06716,5.194836 -0.151986,1.025443 -0.315023,2.705875 -0.362305,3.734294 -0.07797,1.695923 -0.05962,1.929416 0.197281,2.510184 0.433257,0.979448 1.274508,1.787526 3.538338,3.398809 3.279924,2.33449 4.512029,3.774704 5.278396,6.169941 0.483886,1.512356 0.61064,3.927361 0.267995,5.106018 -0.906304,3.117578 -3.47556,5.929866 -6.609233,7.234418 -2.802444,1.16666 -8.579643,1.600159 -11.455175,0.859553 -1.969778,-0.507326 -4.211166,-1.864113 -5.587542,-3.382325 -0.364062,-0.40158 -1.12327,-1.500801 -1.687129,-2.442714 -2.052955,-3.429416 -4.531334,-5.25561 -8.529972,-6.285311 -1.670696,-0.430225 -4.587843,-0.594294 -6.055868,-0.340599 -1.645917,0.284436 -2.683082,1.132788 -3.46023,2.830304 -0.894348,1.953511 0.157931,3.574149 2.878773,4.433663 0.930974,0.294094 1.347367,0.342454 2.948636,0.342454 2.276496,0 3.393757,0.226517 5.127761,1.039617 2.292998,1.075222 3.173518,1.914611 5.477254,5.221403 0.732102,1.050862 1.622041,2.247661 1.977644,2.659555 2.342257,2.713026 6.000467,4.05586 10.581265,3.884111 1.697411,-0.06364 2.296163,-0.15584 4.512095,-0.694791 3.250788,-0.790642 4.437175,-0.976156 5.717278,-0.894004 4.180708,0.268302 5.850301,5.101705 4.349252,12.590904 -0.58837,2.935558 -1.609424,5.425079 -3.573944,8.71395 -1.611327,2.697578 -3.05246,4.250522 -5.438892,5.860867 -2.324202,1.56836 -4.361915,2.36785 -8.641001,3.39028 -4.166883,0.99561 -4.974283,1.82731 -6.842939,7.04886 -1.813372,5.06707 -2.67931,5.91622 -8.464376,8.30023 -3.720243,1.5331 -5.470317,1.85489 -10.458169,1.92299 -1.898968,0.0259 -3.91878,-0.0103 -4.48847,-0.0806 z m 0.809036,-20.14539 c 1.153029,-0.58823 1.851463,-1.662034 3.186038,-4.898346 0.517829,-1.25572 1.137514,-2.588579 1.377078,-2.961908 0.625048,-0.974054 2.787371,-3.009269 4.157216,-3.912842 1.502629,-0.991159 2.586734,-1.530091 3.8494,-1.913613 1.282747,-0.389623 1.750418,-0.327853 3.847107,0.508121 1.397447,0.557179 1.797998,0.657058 2.852854,0.711369 1.269417,0.06536 2.445023,-0.114376 3.192265,-0.488049 1.526873,-0.763546 1.361945,-1.757966 -0.510539,-3.078235 -3.130449,-2.20725 -8.399075,-3.794125 -11.008317,-3.315633 -2.268388,0.415986 -3.866535,1.426135 -5.442745,3.440224 -1.199709,1.532992 -1.572203,1.865235 -3.727229,3.324452 -1.981066,1.341426 -2.980811,2.357784 -3.666172,3.727094 -0.745145,1.488755 -0.926323,2.629798 -0.724151,4.560648 0.248593,2.374212 0.688701,3.761698 1.360929,4.290468 0.431296,0.33926 0.601844,0.34011 1.256266,0.006 z"
       id="path16723"
       transform="matrix(0.26458333,0,0,0.26458333,-136.39982,60.447074)" />
  </g>
</svg>
