<?xml version="1.0" encoding="UTF-8" standalone="no"?>
<!-- Created with Inkscape (http://www.inkscape.org/) -->

<svg
   width="218.57234mm"
   height="62.804375mm"
   viewBox="0 0 218.57234 62.804375"
   version="1.1"
   id="svg28508"
   inkscape:version="1.1.2 (0a00cf5339, 2022-02-04)"
   sodipodi:docname="logo_white.svg"
   xmlns:inkscape="http://www.inkscape.org/namespaces/inkscape"
   xmlns:sodipodi="http://sodipodi.sourceforge.net/DTD/sodipodi-0.dtd"
   xmlns="http://www.w3.org/2000/svg"
   xmlns:svg="http://www.w3.org/2000/svg">
  <sodipodi:namedview
     id="namedview28510"
     pagecolor="#ffffff"
     bordercolor="#666666"
     borderopacity="1.0"
     inkscape:pageshadow="2"
     inkscape:pageopacity="0.0"
     inkscape:pagecheckerboard="0"
     inkscape:document-units="mm"
     showgrid="false"
     inkscape:zoom="0.77593294"
     inkscape:cx="353.1233"
     inkscape:cy="244.22214"
     inkscape:window-width="1920"
     inkscape:window-height="1060"
     inkscape:window-x="0"
     inkscape:window-y="0"
     inkscape:window-maximized="1"
     inkscape:current-layer="layer1" />
  <defs
     id="defs28505">
    <inkscape:path-effect
       effect="bspline"
       id="path-effect930-0"
       is_visible="true"
       weight="33.333333"
       steps="2"
       helper_size="0"
       apply_no_weight="true"
       apply_with_weight="true"
       only_selected="false"
       lpeversion="0" />
    <rect
       x="-260.3909"
       y="-138.77263"
       width="405.82135"
       height="263.59473"
       id="rect2563" />
    <rect
       x="-260.3909"
       y="-138.77263"
       width="405.82135"
       height="263.59473"
       id="rect2563-5" />
    <inkscape:path-effect
       effect="bspline"
       id="path-effect930-0-2"
       is_visible="true"
       weight="33.333333"
       steps="2"
       helper_size="0"
       apply_no_weight="true"
       apply_with_weight="true"
       only_selected="false"
       lpeversion="0" />
    <rect
       x="-260.3909"
       y="-138.77263"
       width="405.82135"
       height="263.59473"
       id="rect2563-0" />
    <rect
       x="-260.3909"
       y="-138.77263"
       width="405.82135"
       height="263.59473"
       id="rect2563-5-2" />
  </defs>
  <g
     inkscape:label="Layer 1"
     inkscape:groupmode="layer"
     id="layer1"
     transform="translate(-9.1713659,-83.935208)">
    <path
       style="fill:#ffffff;fill-opacity:0.15;stroke:#e59b00;stroke-width:1.05694;stroke-linecap:round;stroke-linejoin:miter;stroke-miterlimit:4;stroke-dasharray:none;stroke-opacity:0.00220008"
       d="m 47.190777,111.33215 c 0.578917,1.70078 1.15779,3.40143 1.227195,5.01058 0.06941,1.60915 -0.370399,3.12605 -1.342616,4.61453 -0.972218,1.48848 -2.475553,2.94676 -4.08629,3.67231 -1.610738,0.72554 -3.327038,0.71728 -4.474701,1.98833 -1.147664,1.27105 -1.725591,3.82032 -4.379038,5.17187 -2.653448,1.35154 -7.378687,1.50398 -10.205581,0.44718 -2.826893,-1.05679 -3.751018,-3.32177 -4.236723,-6.13837 -0.485704,-2.81661 -0.532439,-6.1832 -0.554641,-10.70204 -0.0222,-4.51884 -0.01987,-10.18866 0.236188,-15.32808 0.256057,-5.139412 0.765628,-9.745932 2.696781,-12.143244 1.931153,-2.397312 5.282163,-2.582993 7.18974,-1.977008 1.907577,0.605984 2.370846,2.003028 3.784839,2.414061 1.413993,0.411033 3.777755,-0.163979 6.082121,0.624504 2.304366,0.788483 4.548874,2.940125 5.031058,4.91614 0.482184,1.976016 -0.797422,3.775148 -0.18031,5.251344 0.617113,1.476193 3.13038,2.627363 3.981672,4.602603 0.851292,1.97525 0.04083,4.77506 -1.984655,6.14987 -2.025486,1.3748 -5.263936,1.32424 -7.19498,0.33672 -1.931045,-0.98752 -2.551782,-2.91115 -3.80829,-3.91444 -1.256508,-1.00329 -3.14878,-1.08545 -5.041269,-1.16761"
       id="path928-5"
       inkscape:connector-curvature="0"
       inkscape:path-effect="#path-effect930-0"
       inkscape:original-d="m 47.190777,111.33215 c 0.57906,1.70073 1.15793,3.40138 1.73664,5.10201 -0.43976,1.5178 -0.87958,3.0347 -1.31986,4.55226 -1.5042,1.45955 -3.00753,2.91783 -4.51221,4.37696 -1.71702,-0.008 -3.43332,-0.0163 -5.15047,-0.0248 -0.57791,2.55043 -1.15583,5.0997 -1.73432,7.65019 -4.72867,0.15278 -9.45391,0.30521 -14.1831,0.45754 -0.92449,-2.2662 -1.84861,-4.53118 -2.7734,-6.79745 -0.0465,-3.36689 -0.0932,-6.73348 -0.14021,-10.10028 0.003,-5.67088 0.005,-11.3407 0.007,-17.011114 0.51003,-4.60839 1.0196,-9.21491 1.52918,-13.8238 3.35249,-0.18553 6.7035,-0.37121 10.05516,-0.55716 0.46362,1.39764 0.9269,2.79468 1.3901,4.19202 2.3647,-0.57496 4.72846,-1.14998 7.09225,-1.72527 2.24488,2.152 4.48939,4.30364 6.73411,6.45549 -1.28009,1.80037 -2.5597,3.5995 -3.84055,5.39983 2.51477,1.151974 5.02804,2.303134 7.54103,3.454064 -0.81009,2.79955 -1.62055,5.59936 -2.4314,8.39948 -3.2404,-0.0504 -6.47885,-0.10093 -9.71994,-0.15175 -0.62086,-1.92448 -1.24158,-3.84812 -1.86273,-5.77251 -1.89203,-0.0819 -3.7843,-0.16409 -5.67678,-0.24646"
       sodipodi:nodetypes="ccccccccccccccccccccc" />
    <path
       style="fill:none;stroke:#ffffff;stroke-width:2.5;stroke-linecap:round;stroke-linejoin:round;stroke-miterlimit:4;stroke-dasharray:none;stroke-opacity:0.1"
       d="m 153.44507,85.228276 -21.97973,0.0352 0.0509,26.771884 21.92885,21.5178 z"
       id="path16908-0-7"
       sodipodi:nodetypes="ccccc" />
    <g
       aria-label="D"
       transform="matrix(2.1237109,0,0,2.2995479,169.09245,51.572921)"
       id="text4781-6"
       style="font-weight:bold;font-size:32.4369px;line-height:1.25;font-family:cmr10;-inkscape-font-specification:'cmr10 Bold';letter-spacing:0px;word-spacing:0px;white-space:pre;shape-inside:url(#rect4783-1);fill:#ffffff;fill-opacity:1;stroke:none;stroke-width:0.00020548;stroke-miterlimit:4;stroke-dasharray:none;stroke-opacity:1">
      <path
         d="m -75.302662,36.233962 v -1.14036 c 2.011397,0 3.017095,-0.343164 3.017095,-1.029491 V 16.245989 c 0,-0.686327 -1.005698,-1.029491 -3.017095,-1.029491 v -1.14036 h 10.795766 c 1.334576,0 2.554759,0.322046 3.660551,0.966138 1.105791,0.633533 2.049527,1.483524 2.831208,2.549971 0.78168,1.066448 1.382239,2.275441 1.801678,3.626978 0.42897,1.351537 0.643455,2.734751 0.643455,4.149642 0,1.372655 -0.214485,2.708355 -0.643455,4.007098 -0.428971,1.288184 -1.048596,2.454941 -1.858874,3.500271 -0.800746,1.034771 -1.754015,1.853085 -2.859806,2.454941 -1.096259,0.601857 -2.287845,0.902785 -3.574757,0.902785 z m 4.67439,-3.953777 c 0.135923,0.950544 0.14444,1.619188 1.050414,2.383324 0.905974,0.764136 1.937155,0.880535 2.723759,0.933219 0.786604,0.05268 2.0243,-0.0204 2.69874,-0.279671 0.67444,-0.259276 1.421007,-0.435861 1.787291,-0.977791 0.366285,-0.54193 0.466835,-1.337892 0.919342,-1.730803 0.452506,-0.392911 1.214738,-0.352543 1.92557,-0.595536 0.710833,-0.242992 1.525277,-0.711403 1.982848,-1.379255 0.45757,-0.667852 0.782737,-1.167878 0.940027,-2.009949 0.15729,-0.842071 0.158426,-2.069771 -0.457135,-2.50723 -0.615562,-0.437459 -1.867498,0.119365 -2.700104,0.163835 -0.486493,0.02599 -1.533682,-0.03495 -2.197517,-0.572223 -0.663835,-0.537274 -0.854343,-1.252958 -1.674392,-1.647445 -0.820049,-0.394487 -1.344443,-0.239868 -1.701123,-0.27432 -0.35668,-0.03445 -0.733314,-0.505514 -0.38818,-0.637974 0.224288,-0.08608 1.336871,-0.222577 2.393041,0.279951 1.05617,0.502528 1.01177,1.166404 1.630875,1.592572 0.619104,0.426168 1.162379,0.699372 2.863923,0.480087 1.701543,-0.219284 2.169504,-1.465548 2.190875,-1.706715 0.185586,-2.094254 -2.138107,-2.352054 -2.097486,-3.396524 0.04062,-1.04447 0.339838,-1.301612 0.02117,-2.287807 -0.318668,-0.986195 -1.248301,-1.565112 -2.193458,-1.953303 -0.945157,-0.388191 -2.071178,-0.200506 -2.816932,-0.300793 -0.745754,-0.100286 -1.386188,-0.91029 -2.068743,-1.168602 -0.682555,-0.258311 -2.38658,0.01467 -2.876747,0.337887 -0.490167,0.323218 -1.242642,0.764578 -1.710281,2.676084 -0.467639,1.911506 -0.458173,4.562583 -0.470946,6.825076 -0.01277,2.262493 0.08924,6.803357 0.225166,7.753902 z"
         id="path46934"
         sodipodi:nodetypes="ccssccscscscccsczzzzszzzzzszzzsszzszzzzzzzzzz"
         style="fill:#ffffff;fill-opacity:1;stroke:none;stroke-width:0.00020548;stroke-miterlimit:4;stroke-dasharray:none;stroke-opacity:1" />
    </g>
    <path
       d="m 27.974657,121.91379 c -0.0372,0.71773 -0.48856,1.37388 -0.87197,1.55872 -0.38341,0.18484 -0.62505,-1.21944 -0.6067,-1.79554 0.0183,-0.57611 0.34329,-1.29607 0.85912,-2.10371 0.51582,-0.80764 1.49995,-1.36433 2.03491,-1.74368 0.53496,-0.37934 1.02811,-0.89187 1.82942,-1.36358 1.00989,-0.59449 2.02934,-0.68775 2.97362,-0.73736 0.94428,-0.0496 1.18866,0.0892 2.52883,0.53193 1.34018,0.44268 1.65585,1.37873 1.20978,1.59251 -0.62487,0.29947 -1.15094,-0.17809 -1.93586,-0.37229 -0.78493,-0.19419 -1.40002,-0.79899 -3.03793,-0.3296 -1.6379,0.46938 -1.77321,1.0674 -2.21644,1.39923 -0.44323,0.33184 -1.34996,0.82392 -1.94633,1.50289 -0.59638,0.67897 -0.78322,1.14276 -0.82045,1.86048 z"
       style="fill:#ffffff;fill-opacity:1;stroke-width:0.251398"
       id="path57673"
       sodipodi:nodetypes="zzzzzszzszzzzz" />
    <text
       xml:space="preserve"
       transform="matrix(0.26458333,0,0,0.26458333,121.45622,134.02131)"
       id="text2561"
       style="font-weight:bold;font-size:160px;line-height:1.25;font-family:sans-serif;-inkscape-font-specification:'sans-serif, Bold';letter-spacing:3.75px;word-spacing:0px;writing-mode:lr-tb;white-space:pre;shape-inside:url(#rect2563);fill:#ffffff;fill-opacity:1;stroke:none;stroke-width:0.999999;stroke-miterlimit:4;stroke-dasharray:none;stroke-opacity:1"><tspan
         x="-260.39062"
         y="2.7890625"
         id="tspan29601"><tspan
           style="font-weight:normal;font-family:'Asana Math';-inkscape-font-specification:'Asana Math, Normal'"
           id="tspan29599">yn</tspan></tspan></text>
    <path
       style="fill:none;stroke:#ffffff;stroke-width:2.5;stroke-linecap:round;stroke-linejoin:round;stroke-miterlimit:4;stroke-dasharray:none;stroke-opacity:0.275"
       d="m 144.57285,85.223396 -21.97972,0.0352 0.0509,26.771894 21.92884,21.51779 z"
       id="path16908-0"
       sodipodi:nodetypes="ccccc" />
    <text
       xml:space="preserve"
       transform="matrix(0.26458333,0,0,0.26458333,202.92354,134.0719)"
       id="text2561-6"
       style="font-weight:bold;font-size:160px;line-height:1.25;font-family:sans-serif;-inkscape-font-specification:'sans-serif, Bold';letter-spacing:3.75px;word-spacing:0px;writing-mode:lr-tb;white-space:pre;shape-inside:url(#rect2563-5);fill:#ffffff;fill-opacity:1;stroke:none;stroke-width:0.999999;stroke-miterlimit:4;stroke-dasharray:none;stroke-opacity:1"><tspan
         x="-260.39062"
         y="2.7890625"
         id="tspan29605"><tspan
           style="font-weight:normal;font-family:'Asana Math';-inkscape-font-specification:'Asana Math, Normal'"
           id="tspan29603">ision</tspan></tspan></text>
    <path
       style="fill:none;stroke:#ffffff;stroke-width:2.5;stroke-linecap:round;stroke-linejoin:round;stroke-miterlimit:4;stroke-dasharray:none;stroke-opacity:0.275"
       d="m 135.26049,85.233676 -21.97971,0.0352 0.0509,26.771884 21.92883,21.5178 z"
       id="path16908"
       sodipodi:nodetypes="ccccc" />
    <path
       style="fill:none;fill-opacity:0.05;stroke:none;stroke-width:0.264583px;stroke-linecap:butt;stroke-linejoin:miter;stroke-opacity:1"
       d="m 34.787777,85.584626 -2.85502,-0.41914 -14.19386,-0.23974 0.13659,48.815554 5.32361,0.14069 12.32379,-0.15675 9.80902,-8.16855 3.74356,-6.25191 1.24327,-9.17751 -1.4296,-9.69745 -4.03722,-9.046564 -3.66697,-2.94987 z"
       id="path13795"
       sodipodi:nodetypes="ccccccccccccc" />
    <g
       aria-label="V"
       transform="matrix(-2.1237109,0,0,2.2278604,-13.823413,52.575538)"
       id="text4781-6-7"
       style="font-weight:bold;font-size:32.4369px;line-height:1.25;font-family:cmr10;-inkscape-font-specification:'cmr10 Bold';letter-spacing:0px;word-spacing:0px;white-space:pre;shape-inside:url(#rect4783-1-2);fill:#ffffff;fill-opacity:1;stroke:none;stroke-width:0.00021892;stroke-miterlimit:4;stroke-dasharray:none;stroke-opacity:1">
      <path
         d="m -66.835299,36.598244 -0.158908,-20.303087 c -0.19006,-0.454032 -0.570224,-0.78829 -1.108727,-0.904438 -0.538503,-0.116147 -1.224831,-0.174221 -2.058983,-0.174221 v -1.14036 h 9.664493 v 1.14036 c -0.897506,0 -2.018369,-0.0022 -2.599,0.176879 -0.654508,0.201858 -1.0902,0.620264 -1.0902,0.900074 0.06123,6.227328 0.02887,12.109343 0.02688,17.453684 l 7.964783,-7.464551 0.153774,-9.987427 c -0.03004,-0.670732 -0.263106,-0.76084 -0.563456,-0.899752 -0.30035,-0.138912 -1.131248,-0.178907 -1.733105,-0.178907 v -1.14036 h 6.751371 v 1.14036 c -0.813034,0 -2.4345,0.02829 -2.860545,0.178907 -0.426045,0.150617 -0.517758,0.220073 -0.608049,0.899752 l -0.178183,10.570433 -10.394183,9.732654 c -0.469785,0.426304 -0.508349,0.348443 -0.934462,0.348443 -0.28509,0 -0.210141,-0.116148 -0.273495,-0.348443 z"
         id="path43098"
         sodipodi:nodetypes="ccsccccscccczcccczcccccc"
         style="fill:#ffffff;fill-opacity:1;stroke:none;stroke-width:0.00021892;stroke-miterlimit:4;stroke-dasharray:none;stroke-opacity:1" />
    </g>
  </g>
</svg>
